<svg width="51" height="43" viewBox="0 0 51 43" fill="none" xmlns="http://www.w3.org/2000/svg">
<path d="M35.7 41.538V42.9713H37.4V41.538H35.7ZM1.7 41.538H0V42.9713H1.7V41.538ZM49.3 41.5667V43H51V41.5667H49.3ZM27.2 10.0276C27.1996 10.9684 26.9793 11.8998 26.5519 12.7688C26.1245 13.6379 25.4983 14.4274 24.709 15.0923C23.9197 15.7573 22.9828 16.2847 21.9518 16.6443C20.9207 17.004 19.8158 17.1889 18.7 17.1885V20.0552C25.2722 20.0552 30.6 15.566 30.6 10.0276H27.2ZM18.7 17.1885C17.5842 17.1889 16.4793 17.004 15.4482 16.6443C14.4172 16.2847 13.4803 15.7573 12.691 15.0923C11.9017 14.4274 11.2755 13.6379 10.8481 12.7688C10.4207 11.8998 10.2004 10.9684 10.2 10.0276H6.8C6.80045 11.3448 7.1086 12.6491 7.70688 13.8659C8.30515 15.0827 9.18182 16.1882 10.2868 17.1194C11.3919 18.0505 12.7036 18.789 14.1471 19.2928C15.5906 19.7965 17.1377 20.0556 18.7 20.0552V17.1885ZM10.2 10.0276C10.2004 9.08684 10.4207 8.15536 10.8481 7.28635C11.2755 6.41734 11.9017 5.62782 12.691 4.96287C13.4803 4.29791 14.4172 3.77055 15.4482 3.41088C16.4793 3.05121 17.5842 2.86629 18.7 2.86667V4.09796e-07C17.1377 -0.0003761 15.5906 0.258697 14.1471 0.762427C12.7036 1.26616 11.3919 2.00468 10.2868 2.93583C9.18182 3.86698 8.30515 4.97252 7.70688 6.18932C7.1086 7.40613 6.80045 8.71038 6.8 10.0276H10.2ZM18.7 2.86667C20.9532 2.86667 23.1141 3.62094 24.708 4.96371C26.3019 6.30648 27.1982 8.12788 27.2 10.0276H30.6C30.5996 8.71038 30.2914 7.40613 29.6931 6.18932C29.0949 4.97252 28.2182 3.86698 27.1132 2.93583C26.0081 2.00468 24.6964 1.26616 23.2529 0.762427C21.8094 0.258697 20.2623 -0.0003761 18.7 4.09796e-07V2.86667ZM35.7 40.1047H1.7V42.9713H35.7V40.1047ZM3.4 41.538V35.819H0V41.538H3.4ZM11.9 28.6495H25.5V25.7828H11.9V28.6495ZM34 35.8161V41.538H37.4V35.8161H34ZM25.5 28.6495C27.7543 28.6495 29.9163 29.4045 31.5104 30.7485C33.1045 32.0925 34 33.9154 34 35.8161H37.4C37.4 33.1551 36.1463 30.6031 33.9146 28.7215C31.6829 26.8399 28.6561 25.7828 25.5 25.7828V28.6495ZM3.4 35.819C3.4 33.9183 4.29553 32.0925 5.88959 30.7485C7.48365 29.4045 9.64566 28.6495 11.9 28.6495V25.7828C8.74392 25.7828 5.71711 26.8399 3.48543 28.7215C1.25375 30.6031 0 33.158 0 35.819H3.4ZM47.6 37.2667V41.5667H51V37.2667H47.6ZM49.3 40.1333H40.8V43H49.3V40.1333ZM40.8 31.5333C42.6035 31.5333 44.3331 32.1374 45.6083 33.2126C46.8836 34.2878 47.6 35.7461 47.6 37.2667H51C51 34.9858 49.9254 32.7984 48.0125 31.1855C46.0996 29.5727 43.5052 28.6667 40.8 28.6667V31.5333ZM39.1 22.9333C37.7474 22.9333 36.4502 22.4803 35.4938 21.6739C34.5373 20.8675 34 19.7738 34 18.6333H30.6C30.6 20.534 31.4955 22.3569 33.0896 23.7009C34.6837 25.0449 36.8457 25.8 39.1 25.8V22.9333ZM44.2 18.6333C44.2 19.7738 43.6627 20.8675 42.7062 21.6739C41.7498 22.4803 40.4526 22.9333 39.1 22.9333V25.8C41.3543 25.8 43.5163 25.0449 45.1104 23.7009C46.7045 22.3569 47.6 20.534 47.6 18.6333H44.2ZM39.1 14.3333C40.4526 14.3333 41.7498 14.7864 42.7062 15.5928C43.6627 16.3992 44.2 17.4929 44.2 18.6333H47.6C47.6 16.7326 46.7045 14.9097 45.1104 13.5657C43.5163 12.2217 41.3543 11.4667 39.1 11.4667V14.3333ZM39.1 11.4667C36.8457 11.4667 34.6837 12.2217 33.0896 13.5657C31.4955 14.9097 30.6 16.7326 30.6 18.6333H34C34 17.4929 34.5373 16.3992 35.4938 15.5928C36.4502 14.7864 37.7474 14.3333 39.1 14.3333V11.4667Z" fill="black"/>
</svg>
